<?plantuml 1.2026.2?>
<svg xmlns="http://www.w3.org/2000/svg" contentStyleType="text/css" data-diagram-type="ACTIVITY" height="1037px"
     preserveAspectRatio="none" style="width:2005px;height:1037px;background:#FFFFFF;" version="1.1"
     viewBox="0 0 2005 1037" width="2005px" zoomAndPan="magnify">
    <title>Aktivit&#228;t &#8212; Skip-Klassifikation in StateAthEvaluateSkip (IST)</title>
    <defs/>
    <g>
        <rect fill="#FFFFCC" height="120.2832" rx="2.5" ry="2.5" style="stroke:#FFDD88;stroke-width:3;"
              width="1994.8657" x="5" y="5"/>
        <text fill="#000000" font-family="monospace" font-size="10" lengthAdjust="spacing" textLength="534.0869" x="10"
              y="20">This&#160;syntax&#160;is&#160;deprecated,&#160;you&#160;must&#160;add&#160;&lt;&lt;#FFE0E0&gt;&gt;&#160;at&#160;the&#160;end&#160;of&#160;the&#160;line,&#160;after&#160;the&#160;';'
        </text>
        <text fill="#000000" font-family="monospace" font-size="10" lengthAdjust="spacing" textLength="534.0869" x="10"
              y="43.0566">This&#160;syntax&#160;is&#160;deprecated,&#160;you&#160;must&#160;add&#160;&lt;&lt;#FFF3C4&gt;&gt;&#160;at&#160;the&#160;end&#160;of&#160;the&#160;line,&#160;after&#160;the&#160;';'
        </text>
        <text fill="#000000" font-family="monospace" font-size="10" lengthAdjust="spacing" textLength="534.0869" x="10"
              y="66.1133">This&#160;syntax&#160;is&#160;deprecated,&#160;you&#160;must&#160;add&#160;&lt;&lt;#E3F2FD&gt;&gt;&#160;at&#160;the&#160;end&#160;of&#160;the&#160;line,&#160;after&#160;the&#160;';'
        </text>
        <text fill="#000000" font-family="monospace" font-size="10" lengthAdjust="spacing" textLength="534.0869" x="10"
              y="89.1699">This&#160;syntax&#160;is&#160;deprecated,&#160;you&#160;must&#160;add&#160;&lt;&lt;#4A4A4A&gt;&gt;&#160;at&#160;the&#160;end&#160;of&#160;the&#160;line,&#160;after&#160;the&#160;';'
        </text>
        <text fill="#000000" font-family="monospace" font-size="10" lengthAdjust="spacing" textLength="534.0869" x="10"
              y="112.2266">This&#160;syntax&#160;is&#160;deprecated,&#160;you&#160;must&#160;add&#160;&lt;&lt;#FFCDD2&gt;&gt;&#160;at&#160;the&#160;end&#160;of&#160;the&#160;line,&#160;after&#160;the&#160;';'
        </text>
        <g class="title" data-source-line="1">
            <text fill="#000000" font-family="sans-serif" font-size="14" font-weight="bold" lengthAdjust="spacing"
                  textLength="402.6299" x="792.6179" y="164.8164">Aktivit&#228;t &#8212; Skip-Klassifikation in
                StateAthEvaluateSkip (IST)
            </text>
        </g>
        <ellipse cx="488.195" cy="188.8926" fill="#222222" rx="10" ry="10" style="stroke:#222222;stroke-width:1;"/>
        <rect fill="#F1F1F1" height="50.1875" rx="12.5" ry="12.5" style="stroke:#181818;stroke-width:0.5;"
              width="132.0898" x="422.1501" y="218.8926"/>
        <text fill="#000000" font-family="sans-serif" font-size="12" lengthAdjust="spacing" textLength="112.0898"
              x="432.1501" y="241.3496">Rundenende erkannt
        </text>
        <text fill="#000000" font-family="sans-serif" font-size="12" lengthAdjust="spacing" textLength="94.0605"
              x="432.1501" y="256.4434">(OnRoundEnded)
        </text>
        <polygon fill="#F1F1F1"
                 points="421.5451,289.0801,554.8449,289.0801,566.8449,301.0801,554.8449,313.0801,421.5451,313.0801,409.5451,301.0801,421.5451,289.0801"
                 style="stroke:#181818;stroke-width:0.5;"/>
        <text fill="#000000" font-family="sans-serif" font-size="11" lengthAdjust="spacing" textLength="133.2998"
              x="421.5451" y="305.5811">CurrentLevel.LevelBroken?
        </text>
        <text fill="#000000" font-family="sans-serif" font-size="11" lengthAdjust="spacing" textLength="8.5615"
              x="400.9836" y="298.6631">ja
        </text>
        <text fill="#000000" font-family="sans-serif" font-size="11" lengthAdjust="spacing" textLength="20.7969"
              x="566.8449" y="298.6631">nein
        </text>
        <path d="M219.6152,323.0801 L219.6152,364.959 L199.6152,368.959 L219.6152,372.959 L219.6152,414.8379 A0,0 0 0 0 219.6152,414.8379 L404.6323,414.8379 A0,0 0 0 0 404.6323,414.8379 L404.6323,333.0801 L394.6323,323.0801 L219.6152,323.0801 A0,0 0 0 0 219.6152,323.0801"
              fill="#FEFFDD" style="stroke:#181818;stroke-width:0.5;"/>
        <path d="M394.6323,323.0801 L394.6323,333.0801 L404.6323,333.0801 L394.6323,323.0801" fill="#FEFFDD"
              style="stroke:#181818;stroke-width:0.5;"/>
        <text fill="#000000" font-family="sans-serif" font-size="13" lengthAdjust="spacing" textLength="76.6035"
              x="225.6152" y="341.5752">Kein Penalty.
        </text>
        <text fill="#000000" font-family="sans-serif" font-size="13" lengthAdjust="spacing" textLength="98.6172"
              x="225.6152" y="357.9268">TimeWasted = 0.
        </text>
        <text fill="#000000" font-family="sans-serif" font-size="13" lengthAdjust="spacing" textLength="164.0171"
              x="225.6152" y="374.2783">GetTotalLevelPlayDuration()
        </text>
        <text fill="#000000" font-family="sans-serif" font-size="13" lengthAdjust="spacing" textLength="156.0825"
              x="225.6152" y="390.6299">filtert broken Levels heraus
        </text>
        <text fill="#000000" font-family="sans-serif" font-size="13" lengthAdjust="spacing" textLength="146.3071"
              x="225.6152" y="406.9814">-&gt; Spielzeit wird erstattet.
        </text>
        <rect fill="#F1F1F1" height="65.2813" rx="12.5" ry="12.5" style="stroke:#181818;stroke-width:0.5;"
              width="188.6152" x="11" y="336.3184"/>
        <text fill="#000000" font-family="sans-serif" font-size="12" font-weight="bold" lengthAdjust="spacing"
              textLength="70.6816" x="21" y="358.7754">Broken-Skip
        </text>
        <text fill="#000000" font-family="sans-serif" font-size="12" lengthAdjust="spacing" textLength="168.6152" x="21"
              y="373.8691">Warnung "Spent time refunded"
        </text>
        <text fill="#000000" font-family="sans-serif" font-size="12" lengthAdjust="spacing" textLength="98.373" x="21"
              y="388.9629">Status = BROKEN
        </text>
        <polygon fill="#F1F1F1"
                 points="797.4259,323.0801,944.7389,323.0801,956.7389,336.916,944.7389,350.752,797.4259,350.752,785.4259,336.916,797.4259,323.0801"
                 style="stroke:#181818;stroke-width:0.5;"/>
        <text fill="#000000" font-family="sans-serif" font-size="11" lengthAdjust="spacing" textLength="102.7275"
              x="797.4259" y="334.499">GoldMedalAcquired?
        </text>
        <text fill="#000000" font-family="sans-serif" font-size="11" lengthAdjust="spacing" textLength="147.313"
              x="797.4259" y="348.335">(Status GOLD oder AUTHOR)
        </text>
        <text fill="#000000" font-family="sans-serif" font-size="11" lengthAdjust="spacing" textLength="8.5615"
              x="776.8644" y="334.499">ja
        </text>
        <text fill="#000000" font-family="sans-serif" font-size="11" lengthAdjust="spacing" textLength="20.7969"
              x="956.7389" y="334.499">nein
        </text>
        <path d="M638.3433,360.752 L638.3433,394.4551 L618.3433,398.4551 L638.3433,402.4551 L638.3433,436.1582 A0,0 0 0 0 638.3433,436.1582 L841.4004,436.1582 A0,0 0 0 0 841.4004,436.1582 L841.4004,370.752 L831.4004,360.752 L638.3433,360.752 A0,0 0 0 0 638.3433,360.752"
              fill="#FEFFDD" style="stroke:#181818;stroke-width:0.5;"/>
        <path d="M831.4004,360.752 L831.4004,370.752 L841.4004,370.752 L831.4004,360.752" fill="#FEFFDD"
              style="stroke:#181818;stroke-width:0.5;"/>
        <text fill="#000000" font-family="sans-serif" font-size="13" lengthAdjust="spacing" textLength="76.6035"
              x="644.3433" y="379.2471">Kein Penalty.
        </text>
        <text fill="#000000" font-family="sans-serif" font-size="13" lengthAdjust="spacing" textLength="182.0571"
              x="644.3433" y="395.5986">AUTHOR erreicht diesen Zweig
        </text>
        <text fill="#000000" font-family="sans-serif" font-size="13" lengthAdjust="spacing" textLength="169.8442"
              x="644.3433" y="411.9502">nur &#252;ber OnRoundEnded aus
        </text>
        <text fill="#000000" font-family="sans-serif" font-size="13" lengthAdjust="spacing" textLength="100.458"
              x="644.3433" y="428.3018">StateAthPausing.
        </text>
        <rect fill="#F1F1F1" height="65.2813" rx="12.5" ry="12.5" style="stroke:#181818;stroke-width:0.5;"
              width="183.7109" x="434.6323" y="365.8145"/>
        <text fill="#000000" font-family="sans-serif" font-size="12" font-weight="bold" lengthAdjust="spacing"
              textLength="56.666" x="444.6323" y="388.2715">Gold-Skip
        </text>
        <text fill="#000000" font-family="sans-serif" font-size="12" lengthAdjust="spacing" textLength="86.7422"
              x="444.6323" y="403.3652">goldenes Popup
        </text>
        <text fill="#000000" font-family="sans-serif" font-size="12" lengthAdjust="spacing" textLength="163.7109"
              x="444.6323" y="418.459">Status = GOLD bzw. AUTHOR
        </text>
        <polygon fill="#F1F1F1"
                 points="1157.4355,360.752,1273.9185,360.752,1285.9185,372.752,1273.9185,384.752,1157.4355,384.752,1145.4355,372.752,1157.4355,360.752"
                 style="stroke:#181818;stroke-width:0.5;"/>
        <text fill="#000000" font-family="sans-serif" font-size="11" lengthAdjust="spacing" textLength="116.4829"
              x="1157.4355" y="377.2529">AvaiableFreeSkips &gt; 0?
        </text>
        <text fill="#000000" font-family="sans-serif" font-size="11" lengthAdjust="spacing" textLength="8.5615"
              x="1136.874" y="370.335">ja
        </text>
        <text fill="#000000" font-family="sans-serif" font-size="11" lengthAdjust="spacing" textLength="20.7969"
              x="1285.9185" y="370.335">nein
        </text>
        <path d="M1019.4414,405.4121 L1019.4414,430.9395 L999.4414,434.9395 L1019.4414,438.9395 L1019.4414,464.4668 A0,0 0 0 0 1019.4414,464.4668 L1182.7813,464.4668 A0,0 0 0 0 1182.7813,464.4668 L1182.7813,415.4121 L1172.7813,405.4121 L1019.4414,405.4121 A0,0 0 0 0 1019.4414,405.4121"
              fill="#FEFFDD" style="stroke:#181818;stroke-width:0.5;"/>
        <path d="M1172.7813,405.4121 L1172.7813,415.4121 L1182.7813,415.4121 L1172.7813,405.4121" fill="#FEFFDD"
              style="stroke:#181818;stroke-width:0.5;"/>
        <text fill="#000000" font-family="sans-serif" font-size="13" lengthAdjust="spacing" textLength="142.3398"
              x="1025.4414" y="423.9072">Startwert: 1, hardcodiert.
        </text>
        <text fill="#000000" font-family="sans-serif" font-size="13" lengthAdjust="spacing" textLength="116.3271"
              x="1025.4414" y="440.2588">Nicht konfigurierbar,
        </text>
        <text fill="#000000" font-family="sans-serif" font-size="13" lengthAdjust="spacing" textLength="114.8989"
              x="1025.4414" y="456.6104">wird nie nachgef&#252;llt.
        </text>
        <rect fill="#F1F1F1" height="80.375" rx="12.5" ry="12.5" style="stroke:#181818;stroke-width:0.5;"
              width="128.041" x="871.4004" y="394.752"/>
        <text fill="#000000" font-family="sans-serif" font-size="12" font-weight="bold" lengthAdjust="spacing"
              textLength="54.6855" x="881.4004" y="417.209">Free-Skip
        </text>
        <text fill="#000000" font-family="sans-serif" font-size="12" lengthAdjust="spacing" textLength="108.041"
              x="881.4004" y="432.3027">AvaiableFreeSkips--
        </text>
        <text fill="#000000" font-family="sans-serif" font-size="12" lengthAdjust="spacing" textLength="102.3926"
              x="881.4004" y="447.3965">FreeSkipped = true
        </text>
        <text fill="#000000" font-family="sans-serif" font-size="12" lengthAdjust="spacing" textLength="79.6992"
              x="881.4004" y="462.4902">Status = FREE
        </text>
        <polygon fill="#F1F1F1"
                 points="1445.7966,394.752,1546.0696,394.752,1558.0696,406.752,1546.0696,418.752,1445.7966,418.752,1433.7966,406.752,1445.7966,394.752"
                 style="stroke:#181818;stroke-width:0.5;"/>
        <text fill="#000000" font-family="sans-serif" font-size="11" lengthAdjust="spacing" textLength="100.2729"
              x="1445.7966" y="411.2529">IsTimeRunningLow?
        </text>
        <text fill="#000000" font-family="sans-serif" font-size="11" lengthAdjust="spacing" textLength="8.5615"
              x="1425.2351" y="404.335">ja
        </text>
        <text fill="#000000" font-family="sans-serif" font-size="11" lengthAdjust="spacing" textLength="20.7969"
              x="1558.0696" y="404.335">nein
        </text>
        <path d="M1390.0137,428.752 L1390.0137,552.3887 L1370.0137,556.3887 L1390.0137,560.3887 L1390.0137,684.0254 A0,0 0 0 0 1390.0137,684.0254 L1625.6152,684.0254 A0,0 0 0 0 1625.6152,684.0254 L1625.6152,438.752 L1615.6152,428.752 L1390.0137,428.752 A0,0 0 0 0 1390.0137,428.752"
              fill="#FEFFDD" style="stroke:#181818;stroke-width:0.5;"/>
        <path d="M1615.6152,428.752 L1615.6152,438.752 L1625.6152,438.752 L1615.6152,428.752" fill="#FEFFDD"
              style="stroke:#181818;stroke-width:0.5;"/>
        <text fill="#000000" font-family="sans-serif" font-size="13" font-weight="bold" lengthAdjust="spacing"
              textLength="145.8882" x="1396.0137" y="447.2471">Fehlerhafte Bedingung:
        </text>
        <text fill="#000000" font-family="sans-serif" font-size="13" lengthAdjust="spacing" textLength="122.478"
              x="1396.0137" y="463.5986">IsTimeRunningLow =
        </text>
        <text fill="#000000" font-family="sans-serif" font-size="13" lengthAdjust="spacing" textLength="207.3779"
              x="1403.2373" y="479.9502">Restzeit &lt;= PenaltyTime * Penalties
        </text>
        <text fill="#000000" font-family="sans-serif" font-size="13" lengthAdjust="spacing" textLength="3.6118"
              x="1396.0137" y="496.3018">&#160;
        </text>
        <text fill="#000000" font-family="sans-serif" font-size="13" lengthAdjust="spacing" textLength="155.3525"
              x="1396.0137" y="512.6533">Mit 0 Penalties: Schwelle 0
        </text>
        <text fill="#000000" font-family="sans-serif" font-size="13" lengthAdjust="spacing" textLength="187.1416"
              x="1396.0137" y="529.0049">Mit 3 Penalties: Schwelle 15 min
        </text>
        <text fill="#000000" font-family="sans-serif" font-size="13" lengthAdjust="spacing" textLength="132.5708"
              x="1396.0137" y="545.3564">-&gt; Schwelle w&#228;chst mit
        </text>
        <text fill="#000000" font-family="sans-serif" font-size="13" lengthAdjust="spacing" textLength="113.4517"
              x="1406.8491" y="561.708">der Penalty-Anzahl.
        </text>
        <text fill="#000000" font-family="sans-serif" font-size="13" lengthAdjust="spacing" textLength="3.6118"
              x="1396.0137" y="578.0596">&#160;
        </text>
        <text fill="#000000" font-family="sans-serif" font-size="13" lengthAdjust="spacing" textLength="136.5381"
              x="1396.0137" y="594.4111">Gemeint war vermutlich
        </text>
        <text fill="#000000" font-family="sans-serif" font-size="13" lengthAdjust="spacing" textLength="167.6289"
              x="1396.0137" y="610.7627">IsTimeAfterSkipRunningLow.
        </text>
        <text fill="#000000" font-family="sans-serif" font-size="13" lengthAdjust="spacing" textLength="3.6118"
              x="1396.0137" y="627.1143">&#160;
        </text>
        <text fill="#000000" font-family="sans-serif" font-size="13" lengthAdjust="spacing" textLength="126.4453"
              x="1396.0137" y="643.4658">Effekt ist derselbe wie
        </text>
        <text fill="#000000" font-family="sans-serif" font-size="13" lengthAdjust="spacing" textLength="163.2871"
              x="1396.0137" y="659.8174">Penalty-Skip &#8212; nur der Text
        </text>
        <text fill="#000000" font-family="sans-serif" font-size="13" lengthAdjust="spacing" textLength="108.3926"
              x="1396.0137" y="676.1689">unterscheidet sich.
        </text>
        <rect fill="#F1F1F1" height="65.2813" rx="12.5" ry="12.5" style="stroke:#181818;stroke-width:0.5;"
              width="157.2324" x="1212.7813" y="523.748"/>
        <text fill="#000000" font-family="sans-serif" font-size="12" font-weight="bold" lengthAdjust="spacing"
              textLength="57.3457" x="1222.7813" y="546.2051">Fatal-Skip
        </text>
        <text fill="#000000" font-family="sans-serif" font-size="12" lengthAdjust="spacing" textLength="137.2324"
              x="1222.7813" y="561.2988">"Well.. I tried to warn you"
        </text>
        <text fill="#000000" font-family="sans-serif" font-size="12" lengthAdjust="spacing" textLength="89.707"
              x="1222.7813" y="576.3926">Status = FAILED
        </text>
        <path d="M1765.3223,428.752 L1765.3223,462.4551 L1745.3223,466.4551 L1765.3223,470.4551 L1765.3223,504.1582 A0,0 0 0 0 1765.3223,504.1582 L1978.8657,504.1582 A0,0 0 0 0 1978.8657,504.1582 L1978.8657,438.752 L1968.8657,428.752 L1765.3223,428.752 A0,0 0 0 0 1765.3223,428.752"
              fill="#FEFFDD" style="stroke:#181818;stroke-width:0.5;"/>
        <path d="M1968.8657,428.752 L1968.8657,438.752 L1978.8657,438.752 L1968.8657,428.752" fill="#FEFFDD"
              style="stroke:#181818;stroke-width:0.5;"/>
        <text fill="#000000" font-family="sans-serif" font-size="13" lengthAdjust="spacing" textLength="137.3125"
              x="1771.3223" y="447.2471">Penalties++ (abgeleitet)
        </text>
        <text fill="#000000" font-family="sans-serif" font-size="13" lengthAdjust="spacing" textLength="192.5435"
              x="1771.3223" y="463.5986">-&gt; GetAccumulatedPenaltyTime()
        </text>
        <text fill="#000000" font-family="sans-serif" font-size="13" lengthAdjust="spacing" textLength="177.7471"
              x="1782.1577" y="479.9502">+= PenaltyTime (default 5 min)
        </text>
        <text fill="#000000" font-family="sans-serif" font-size="13" lengthAdjust="spacing" textLength="128.959"
              x="1771.3223" y="496.3018">-&gt; Restzeit sinkt sofort
        </text>
        <rect fill="#F1F1F1" height="65.2813" rx="12.5" ry="12.5" style="stroke:#181818;stroke-width:0.5;"
              width="109.707" x="1635.6152" y="433.8145"/>
        <text fill="#000000" font-family="sans-serif" font-size="12" font-weight="bold" lengthAdjust="spacing"
              textLength="72.0234" x="1645.6152" y="456.2715">Penalty-Skip
        </text>
        <text fill="#000000" font-family="sans-serif" font-size="12" lengthAdjust="spacing" textLength="72.709"
              x="1645.6152" y="471.3652">Fehler-Popup
        </text>
        <text fill="#000000" font-family="sans-serif" font-size="12" lengthAdjust="spacing" textLength="89.707"
              x="1645.6152" y="486.459">Status = FAILED
        </text>
        <polygon fill="#F1F1F1"
                 points="1495.9331,690.0254,1507.9331,702.0254,1495.9331,714.0254,1483.9331,702.0254,1495.9331,690.0254"
                 style="stroke:#181818;stroke-width:0.5;"/>
        <polygon fill="#F1F1F1"
                 points="1215.677,720.0254,1227.677,732.0254,1215.677,744.0254,1203.677,732.0254,1215.677,720.0254"
                 style="stroke:#181818;stroke-width:0.5;"/>
        <polygon fill="#F1F1F1"
                 points="871.0824,750.0254,883.0824,762.0254,871.0824,774.0254,859.0824,762.0254,871.0824,750.0254"
                 style="stroke:#181818;stroke-width:0.5;"/>
        <polygon fill="#F1F1F1"
                 points="488.195,780.0254,500.195,792.0254,488.195,804.0254,476.195,792.0254,488.195,780.0254"
                 style="stroke:#181818;stroke-width:0.5;"/>
        <rect fill="#F1F1F1" height="35.0938" rx="12.5" ry="12.5" style="stroke:#181818;stroke-width:0.5;"
              width="169.7539" x="403.3181" y="824.0254"/>
        <text fill="#000000" font-family="sans-serif" font-size="12" lengthAdjust="spacing" textLength="149.7539"
              x="413.3181" y="846.4824">CurrentLevel.Skipped = true
        </text>
        <rect fill="#F1F1F1" height="50.1875" rx="12.5" ry="12.5" style="stroke:#181818;stroke-width:0.5;"
              width="148.748" x="413.821" y="879.1191"/>
        <text fill="#000000" font-family="sans-serif" font-size="12" lengthAdjust="spacing" textLength="104.7129"
              x="423.821" y="901.5762">CurrentLevel.Stop()
        </text>
        <text fill="#000000" font-family="sans-serif" font-size="12" lengthAdjust="spacing" textLength="128.748"
              x="423.821" y="916.6699">(Uhr endg&#252;ltig anhalten)
        </text>
        <rect fill="#F1F1F1" height="35.0938" rx="12.5" ry="12.5" style="stroke:#181818;stroke-width:0.5;"
              width="160.3965" x="407.9968" y="949.3066"/>
        <text fill="#000000" font-family="sans-serif" font-size="12" lengthAdjust="spacing" textLength="140.3965"
              x="417.9968" y="971.7637">-&gt; StateAthLevelSummary
        </text>
        <ellipse cx="488.195" cy="1015.4004" fill="none" rx="11" ry="11" style="stroke:#222222;stroke-width:1;"/>
        <ellipse cx="488.195" cy="1015.4004" fill="#222222" rx="6" ry="6" style="stroke:#222222;stroke-width:1;"/>
        <line style="stroke:#181818;stroke-width:1;" x1="488.195" x2="488.195" y1="198.8926" y2="218.8926"/>
        <polygon fill="#181818" points="484.195,208.8926,488.195,218.8926,492.195,208.8926,488.195,212.8926"
                 style="stroke:#181818;stroke-width:1;"/>
        <line style="stroke:#181818;stroke-width:1;" x1="1433.7966" x2="1291.3975" y1="406.752" y2="406.752"/>
        <line style="stroke:#181818;stroke-width:1;" x1="1291.3975" x2="1291.3975" y1="406.752" y2="523.748"/>
        <polygon fill="#181818" points="1287.3975,513.748,1291.3975,523.748,1295.3975,513.748,1291.3975,517.748"
                 style="stroke:#181818;stroke-width:1;"/>
        <line style="stroke:#181818;stroke-width:1;" x1="1558.0696" x2="1690.4688" y1="406.752" y2="406.752"/>
        <line style="stroke:#181818;stroke-width:1;" x1="1690.4688" x2="1690.4688" y1="406.752" y2="433.8145"/>
        <polygon fill="#181818" points="1686.4688,423.8145,1690.4688,433.8145,1694.4688,423.8145,1690.4688,427.8145"
                 style="stroke:#181818;stroke-width:1;"/>
        <line style="stroke:#181818;stroke-width:1;" x1="1291.3975" x2="1291.3975" y1="589.0293" y2="702.0254"/>
        <line style="stroke:#181818;stroke-width:1;" x1="1291.3975" x2="1483.9331" y1="702.0254" y2="702.0254"/>
        <polygon fill="#181818" points="1473.9331,698.0254,1483.9331,702.0254,1473.9331,706.0254,1477.9331,702.0254"
                 style="stroke:#181818;stroke-width:1;"/>
        <line style="stroke:#181818;stroke-width:1;" x1="1690.4688" x2="1690.4688" y1="499.0957" y2="702.0254"/>
        <line style="stroke:#181818;stroke-width:1;" x1="1690.4688" x2="1507.9331" y1="702.0254" y2="702.0254"/>
        <polygon fill="#181818" points="1517.9331,698.0254,1507.9331,702.0254,1517.9331,706.0254,1513.9331,702.0254"
                 style="stroke:#181818;stroke-width:1;"/>
        <line style="stroke:#181818;stroke-width:1;" x1="1145.4355" x2="935.4209" y1="372.752" y2="372.752"/>
        <line style="stroke:#181818;stroke-width:1;" x1="935.4209" x2="935.4209" y1="372.752" y2="394.752"/>
        <polygon fill="#181818" points="931.4209,384.752,935.4209,394.752,939.4209,384.752,935.4209,388.752"
                 style="stroke:#181818;stroke-width:1;"/>
        <line style="stroke:#181818;stroke-width:1;" x1="1285.9185" x2="1495.9331" y1="372.752" y2="372.752"/>
        <line style="stroke:#181818;stroke-width:1;" x1="1495.9331" x2="1495.9331" y1="372.752" y2="394.752"/>
        <polygon fill="#181818" points="1491.9331,384.752,1495.9331,394.752,1499.9331,384.752,1495.9331,388.752"
                 style="stroke:#181818;stroke-width:1;"/>
        <line style="stroke:#181818;stroke-width:1;" x1="935.4209" x2="935.4209" y1="475.127" y2="732.0254"/>
        <line style="stroke:#181818;stroke-width:1;" x1="935.4209" x2="1203.677" y1="732.0254" y2="732.0254"/>
        <polygon fill="#181818" points="1193.677,728.0254,1203.677,732.0254,1193.677,736.0254,1197.677,732.0254"
                 style="stroke:#181818;stroke-width:1;"/>
        <line style="stroke:#181818;stroke-width:1;" x1="1495.9331" x2="1495.9331" y1="714.0254" y2="732.0254"/>
        <line style="stroke:#181818;stroke-width:1;" x1="1495.9331" x2="1227.677" y1="732.0254" y2="732.0254"/>
        <polygon fill="#181818" points="1237.677,728.0254,1227.677,732.0254,1237.677,736.0254,1233.677,732.0254"
                 style="stroke:#181818;stroke-width:1;"/>
        <line style="stroke:#181818;stroke-width:1;" x1="785.4259" x2="526.4878" y1="336.916" y2="336.916"/>
        <line style="stroke:#181818;stroke-width:1;" x1="526.4878" x2="526.4878" y1="336.916" y2="365.8145"/>
        <polygon fill="#181818" points="522.4878,355.8145,526.4878,365.8145,530.4878,355.8145,526.4878,359.8145"
                 style="stroke:#181818;stroke-width:1;"/>
        <line style="stroke:#181818;stroke-width:1;" x1="956.7389" x2="1215.677" y1="336.916" y2="336.916"/>
        <line style="stroke:#181818;stroke-width:1;" x1="1215.677" x2="1215.677" y1="336.916" y2="360.752"/>
        <polygon fill="#181818" points="1211.677,350.752,1215.677,360.752,1219.677,350.752,1215.677,354.752"
                 style="stroke:#181818;stroke-width:1;"/>
        <line style="stroke:#181818;stroke-width:1;" x1="526.4878" x2="526.4878" y1="431.0957" y2="762.0254"/>
        <line style="stroke:#181818;stroke-width:1;" x1="526.4878" x2="859.0824" y1="762.0254" y2="762.0254"/>
        <polygon fill="#181818" points="849.0824,758.0254,859.0824,762.0254,849.0824,766.0254,853.0824,762.0254"
                 style="stroke:#181818;stroke-width:1;"/>
        <line style="stroke:#181818;stroke-width:1;" x1="1215.677" x2="1215.677" y1="744.0254" y2="762.0254"/>
        <line style="stroke:#181818;stroke-width:1;" x1="1215.677" x2="883.0824" y1="762.0254" y2="762.0254"/>
        <polygon fill="#181818" points="893.0824,758.0254,883.0824,762.0254,893.0824,766.0254,889.0824,762.0254"
                 style="stroke:#181818;stroke-width:1;"/>
        <line style="stroke:#181818;stroke-width:1;" x1="409.5451" x2="105.3076" y1="301.0801" y2="301.0801"/>
        <line style="stroke:#181818;stroke-width:1;" x1="105.3076" x2="105.3076" y1="301.0801" y2="336.3184"/>
        <polygon fill="#181818" points="101.3076,326.3184,105.3076,336.3184,109.3076,326.3184,105.3076,330.3184"
                 style="stroke:#181818;stroke-width:1;"/>
        <line style="stroke:#181818;stroke-width:1;" x1="566.8449" x2="871.0824" y1="301.0801" y2="301.0801"/>
        <line style="stroke:#181818;stroke-width:1;" x1="871.0824" x2="871.0824" y1="301.0801" y2="323.0801"/>
        <polygon fill="#181818" points="867.0824,313.0801,871.0824,323.0801,875.0824,313.0801,871.0824,317.0801"
                 style="stroke:#181818;stroke-width:1;"/>
        <line style="stroke:#181818;stroke-width:1;" x1="105.3076" x2="105.3076" y1="401.5996" y2="792.0254"/>
        <line style="stroke:#181818;stroke-width:1;" x1="105.3076" x2="476.195" y1="792.0254" y2="792.0254"/>
        <polygon fill="#181818" points="466.195,788.0254,476.195,792.0254,466.195,796.0254,470.195,792.0254"
                 style="stroke:#181818;stroke-width:1;"/>
        <line style="stroke:#181818;stroke-width:1;" x1="871.0824" x2="871.0824" y1="774.0254" y2="792.0254"/>
        <line style="stroke:#181818;stroke-width:1;" x1="871.0824" x2="500.195" y1="792.0254" y2="792.0254"/>
        <polygon fill="#181818" points="510.195,788.0254,500.195,792.0254,510.195,796.0254,506.195,792.0254"
                 style="stroke:#181818;stroke-width:1;"/>
        <line style="stroke:#181818;stroke-width:1;" x1="488.195" x2="488.195" y1="269.0801" y2="289.0801"/>
        <polygon fill="#181818" points="484.195,279.0801,488.195,289.0801,492.195,279.0801,488.195,283.0801"
                 style="stroke:#181818;stroke-width:1;"/>
        <line style="stroke:#181818;stroke-width:1;" x1="488.195" x2="488.195" y1="804.0254" y2="824.0254"/>
        <polygon fill="#181818" points="484.195,814.0254,488.195,824.0254,492.195,814.0254,488.195,818.0254"
                 style="stroke:#181818;stroke-width:1;"/>
        <line style="stroke:#181818;stroke-width:1;" x1="488.195" x2="488.195" y1="859.1191" y2="879.1191"/>
        <polygon fill="#181818" points="484.195,869.1191,488.195,879.1191,492.195,869.1191,488.195,873.1191"
                 style="stroke:#181818;stroke-width:1;"/>
        <line style="stroke:#181818;stroke-width:1;" x1="488.195" x2="488.195" y1="929.3066" y2="949.3066"/>
        <polygon fill="#181818" points="484.195,939.3066,488.195,949.3066,492.195,939.3066,488.195,943.3066"
                 style="stroke:#181818;stroke-width:1;"/>
        <line style="stroke:#181818;stroke-width:1;" x1="488.195" x2="488.195" y1="984.4004" y2="1004.4004"/>
        <polygon fill="#181818" points="484.195,994.4004,488.195,1004.4004,492.195,994.4004,488.195,998.4004"
                 style="stroke:#181818;stroke-width:1;"/>
        <?plantuml-src ZPLVSk964CRVTOekvqNWXR3hpGluJyb6E2vxrovWorKflmoeXIOC8pBJWjXFEKIEiCVODzya9qdF0BA4ILMAAY6fUtg--SqtBPAa4A8voPMar-y4__prDupcSjcwLS9QcSgv89bha1f690WZokALK0NVkZG8RqRZHX3OkTHBOSG2R2QIV2tr35AXB7A8XA4Ww0uBdQ16lW2QkT2QddHuhuSvlu_vRTBe1O5C8RmgZ45DTxX2rVRNIvFFKLyqW3BK4Fuk6W70JuD1t8axtMPp4suvFStcatuKHXSy_z5eoMM0v0B1OEgcJuwUj5j6OU4CBeVtj_7N7fVIEN6Ad6N43m2toAjzG2qKFRVzcp7NU1IMCE5ndSsxQwHnJa9vXGzAFFSBurc53HzFfI8q11El3doQXGoDAAnFQ9t3Q2bHlQ0aM4kJC1U6HOJaPc1INbZ0mn12pQ9SOKVeEbV95qo4YgP_5D9WSi4ej-kwlh_hGvwWWUZR-DVxOQDEpNCRd5nzPcwkJ4bjnW-yFHOUycMnh63o1ISlw_QsOCzNsKDs21fi1_2o3CffHf18j2pbjpNAsJP55mPUVqnORjKAi6C4fUiU-1MxQbEwPCEtDJeRFj5AI35HE33eNMhX73eN-o0OHNmo-3JeCmgNMQ9uDxpLUjAxXwNt09a2Aum6mpZkxLQqJyQlmT2QpT25ZnyW4oQPvip2KBjC-Ue1pNETobbXE3OHvaCPzUxG4a6BQJR3zFM7KkNW2eptE3P0RgnpC9z0pGZlylK15apZS-H-ZePWNvSuZXvHgNORRdZLabTFEQpvYC5pNbIFqo2wkOlxlRBS0Gu0fvFp0MOAJIPI3bzYmeBui7PFVvwSL_Bs1SDP9GWmH4l-s9oUxJpdyg6vVMAV1PK1NpYpynRgmcYQhNbH29szh9E3MHz_WONKbLHtT7V1zUltQMQ9CwYc4TmPt8fhHVf5PAfT5NMD2zubSYnXXMPHa68Fl6CGCIVZjk8DHgrCdAOu9v2iW2Uqg2OiIM8bOwV1zslNtzsPS-B6-6TLSg5v9ZlDK2P8O5dCcprh7ZlaCjzNhlhzJsoVweJEG9iTR-qtblzbc78xZeyX59CPAjvsf4PzCxWNHzDfiIWKDukaueYmKT-JuxfVmWHJKIW2ly5xHKkJSTzXmZPFSqF_IKGdCWsgTvl_pJNerZvgzJxIsuzIlWmRtD6_PSPLcV5f9pa3eJCMZfg_arrdm6rZz8D6nM8Xp7FFVMxpPV0l?>
    </g>
</svg>