<?plantuml 1.2026.2?>
<svg xmlns="http://www.w3.org/2000/svg" contentStyleType="text/css" data-diagram-type="ACTIVITY" height="2163px"
     preserveAspectRatio="none" style="width:1512px;height:2163px;background:#FFFFFF;" version="1.1"
     viewBox="0 0 1512 2163" width="1512px" zoomAndPan="magnify">
    <title>Aktivit&#228;t &#8212; Levelbeschaffung &amp; Thread-Kontext (IST)</title>
    <defs/>
    <g>
        <rect fill="#FFFFCC" height="28.0566" rx="2.5" ry="2.5" style="stroke:#FFDD88;stroke-width:3;" width="1501.0215"
              x="5" y="5"/>
        <text fill="#000000" font-family="monospace" font-size="10" lengthAdjust="spacing" textLength="534.0869" x="10"
              y="20">This&#160;syntax&#160;is&#160;deprecated,&#160;you&#160;must&#160;add&#160;&lt;&lt;#FFCDD2&gt;&gt;&#160;at&#160;the&#160;end&#160;of&#160;the&#160;line,&#160;after&#160;the&#160;';'
        </text>
        <g class="title" data-source-line="1">
            <text fill="#000000" font-family="sans-serif" font-size="14" font-weight="bold" lengthAdjust="spacing"
                  textLength="352.8096" x="570.606" y="72.5898">Aktivit&#228;t &#8212; Levelbeschaffung &amp;
                Thread-Kontext (IST)
            </text>
        </g>
        <rect fill="none" height="22.6406" style="stroke:none;stroke-width:1;" width="1464.0215" x="15" y="89.1211"/>
        <rect fill="#EAF4FF" height="2061.9141" style="stroke:#EAF4FF;stroke-width:1;" width="253.4355" x="15"
              y="89.1211"/>
        <ellipse cx="142.7178" cy="126.7617" fill="#222222" rx="10" ry="10" style="stroke:#222222;stroke-width:1;"/>
        <rect fill="#F1F1F1" height="50.1875" rx="12.5" ry="12.5" style="stroke:#181818;stroke-width:0.5;"
              width="243.4355" x="21" y="156.7617"/>
        <text fill="#000000" font-family="sans-serif" font-size="12" lengthAdjust="spacing" textLength="100.7168" x="31"
              y="179.2188">AthState.Execute()
        </text>
        <text fill="#000000" font-family="sans-serif" font-size="12" lengthAdjust="spacing" textLength="223.4355" x="31"
              y="194.3125">(z. B. StateAthStarting / ResolvingBroken)
        </text>
        <rect fill="#F1F1F1" height="50.1875" rx="12.5" ry="12.5" style="stroke:#181818;stroke-width:0.5;"
              width="172.7188" x="56.3584" y="226.9492"/>
        <text fill="#000000" font-family="sans-serif" font-size="12" lengthAdjust="spacing" textLength="145.4063"
              x="66.3584" y="249.4063">await RandomLevelService
        </text>
        <text fill="#000000" font-family="sans-serif" font-size="12" lengthAdjust="spacing" textLength="146.0508"
              x="73.0264" y="264.5">.DrawRandomLevelAsync()
        </text>
        <rect fill="#F1F1F1" height="65.2813" rx="12.5" ry="12.5" style="stroke:#181818;stroke-width:0.5;"
              width="195.3828" x="45.0264" y="1589.9609"/>
        <text fill="#000000" font-family="sans-serif" font-size="12" lengthAdjust="spacing" textLength="175.3828"
              x="55.0264" y="1612.418">PlaylistService.StartNewPlaylist /
        </text>
        <text fill="#000000" font-family="sans-serif" font-size="12" lengthAdjust="spacing" textLength="148.7344"
              x="55.0264" y="1627.5117">AddLevelToCurrentPlaylist /
        </text>
        <text fill="#000000" font-family="sans-serif" font-size="12" lengthAdjust="spacing" textLength="160.7461"
              x="55.0264" y="1642.6055">ReplaceLevelInCurrentPlaylist
        </text>
        <rect fill="#F1F1F1" height="35.0938" rx="12.5" ry="12.5" style="stroke:#181818;stroke-width:0.5;"
              width="216.752" x="34.3418" y="1675.2422"/>
        <text fill="#000000" font-family="sans-serif" font-size="12" lengthAdjust="spacing" textLength="196.752"
              x="44.3418" y="1697.6992">CurrentLobby.Playlist direkt mutieren
        </text>
        <rect fill="#F1F1F1" height="35.0938" rx="12.5" ry="12.5" style="stroke:#181818;stroke-width:0.5;"
              width="176.0703" x="54.6826" y="1730.3359"/>
        <text fill="#000000" font-family="sans-serif" font-size="12" lengthAdjust="spacing" textLength="156.0703"
              x="64.6826" y="1752.793">QueueServerPlaylistUpdate()
        </text>
        <rect fill="#F1F1F1" height="35.0938" rx="12.5" ry="12.5" style="stroke:#181818;stroke-width:0.5;"
              width="185.2578" x="50.0889" y="2073.9414"/>
        <text fill="#000000" font-family="sans-serif" font-size="12" lengthAdjust="spacing" textLength="165.2578"
              x="60.0889" y="2096.3984">ChatApi.SendMessage("/fs ...")
        </text>
        <ellipse cx="142.7178" cy="2140.0352" fill="none" rx="11" ry="11" style="stroke:#222222;stroke-width:1;"/>
        <ellipse cx="142.7178" cy="2140.0352" fill="#222222" rx="6" ry="6" style="stroke:#222222;stroke-width:1;"/>
        <line style="stroke:#000000;stroke-width:1.5;" x1="15" x2="15" y1="89.1211" y2="2151.0352"/>
        <rect fill="#FFF0F0" height="2061.9141" style="stroke:#FFF0F0;stroke-width:1;" width="743.9629" x="268.4355"
              y="89.1211"/>
        <rect fill="#F1F1F1" height="35.0938" rx="12.5" ry="12.5" style="stroke:#181818;stroke-width:0.5;"
              width="160.0566" x="402.2378" y="346.0547"/>
        <text fill="#000000" font-family="sans-serif" font-size="12" lengthAdjust="spacing" textLength="140.0566"
              x="412.2378" y="368.5117">GetRandomLevelsAsync()
        </text>
        <rect fill="#F1F1F1" height="50.1875" rx="12.5" ry="12.5" style="stroke:#181818;stroke-width:0.5;"
              width="181.3555" x="391.5884" y="401.1484"/>
        <text fill="#000000" font-family="sans-serif" font-size="12" lengthAdjust="spacing" textLength="161.3555"
              x="401.5884" y="423.6055">TryFetchFromGraphQlAsync()
        </text>
        <text fill="#000000" font-family="sans-serif" font-size="12" lengthAdjust="spacing" textLength="118.0488"
              x="401.5884" y="438.6992">.ConfigureAwait(false)
        </text>
        <rect fill="#F1F1F1" height="80.375" rx="12.5" ry="12.5" style="stroke:#181818;stroke-width:0.5;"
              width="238.7715" x="362.8804" y="471.3359"/>
        <text fill="#000000" font-family="sans-serif" font-size="12" lengthAdjust="spacing" textLength="218.7715"
              x="372.8804" y="493.793">GraphQLService.GetRandomLevelAsync
        </text>
        <text fill="#000000" font-family="sans-serif" font-size="12" lengthAdjust="spacing" textLength="145.084"
              x="379.5483" y="508.8867">amount = 100 (hardcodiert)
        </text>
        <text fill="#000000" font-family="sans-serif" font-size="12" lengthAdjust="spacing" textLength="199.084"
              x="379.5483" y="523.9805">maxAuthorTime = 180 s (hardcodiert)
        </text>
        <text fill="#000000" font-family="sans-serif" font-size="12" lengthAdjust="spacing" textLength="187.1016"
              x="379.5483" y="539.0742">filter: !deleted, amountFinishes != 0
        </text>
        <polygon fill="#F1F1F1"
                 points="425.0935,571.7109,539.4387,571.7109,551.4387,583.7109,539.4387,595.7109,425.0935,595.7109,413.0935,583.7109,425.0935,571.7109"
                 style="stroke:#181818;stroke-width:0.5;"/>
        <text fill="#000000" font-family="sans-serif" font-size="11" lengthAdjust="spacing" textLength="114.3452"
              x="425.0935" y="588.2119">Antwort enth&#228;lt Levels?
        </text>
        <text fill="#000000" font-family="sans-serif" font-size="11" lengthAdjust="spacing" textLength="8.5615"
              x="404.532" y="581.2939">ja
        </text>
        <text fill="#000000" font-family="sans-serif" font-size="11" lengthAdjust="spacing" textLength="78.2729"
              x="551.4387" y="581.2939">nein / Exception
        </text>
        <rect fill="#F1F1F1" height="50.1875" rx="12.5" ry="12.5" style="stroke:#181818;stroke-width:0.5;"
              width="178.0859" x="274.4355" y="605.7109"/>
        <text fill="#000000" font-family="sans-serif" font-size="12" lengthAdjust="spacing" textLength="158.0859"
              x="284.4355" y="628.168">nach FetchedLevelUids filtern
        </text>
        <text fill="#000000" font-family="sans-serif" font-size="12" lengthAdjust="spacing" textLength="153.4277"
              x="284.4355" y="643.2617">(Run-&#252;bergreifende Dedupe)
        </text>
        <rect fill="#F1F1F1" height="35.0938" rx="12.5" ry="12.5" style="stroke:#181818;stroke-width:0.5;"
              width="158.6973" x="521.7051" y="605.7109"/>
        <text fill="#000000" font-family="sans-serif" font-size="12" lengthAdjust="spacing" textLength="138.6973"
              x="531.7051" y="628.168">FetchFromLocalPlaylists()
        </text>
        <rect fill="#F1F1F1" height="50.1875" rx="12.5" ry="12.5" style="stroke:#181818;stroke-width:0.5;"
              width="152.0762" x="525.0156" y="675.8047"/>
        <text fill="#000000" font-family="sans-serif" font-size="12" lengthAdjust="spacing" textLength="132.0762"
              x="535.0156" y="698.2617">LocalLevelCacheService
        </text>
        <text fill="#000000" font-family="sans-serif" font-size="12" lengthAdjust="spacing" textLength="99.375"
              x="541.6836" y="713.3555">.EnsureInitialized()
        </text>
        <rect fill="#F1F1F1" height="50.1875" rx="12.5" ry="12.5" style="stroke:#181818;stroke-width:0.5;"
              width="150.0313" x="526.0381" y="745.9922"/>
        <text fill="#000000" font-family="sans-serif" font-size="12" lengthAdjust="spacing" textLength="130.0313"
              x="536.0381" y="768.4492">PlaylistApi.GetPlaylists()
        </text>
        <text fill="#000000" font-family="sans-serif" font-size="12" font-weight="bold" lengthAdjust="spacing"
              textLength="54" x="536.0381" y="783.543">Unity-API
        </text>
        <rect fill="#F1F1F1" height="50.1875" rx="12.5" ry="12.5" style="stroke:#181818;stroke-width:0.5;"
              width="244.7363" x="478.6855" y="816.1797"/>
        <text fill="#000000" font-family="sans-serif" font-size="12" lengthAdjust="spacing" textLength="224.7363"
              x="488.6855" y="838.6367">Fallback: %APPDATA%\Zeepkist\Playlists
        </text>
        <ellipse cx="494.1855" cy="848.8672" fill="#000000" rx="2.5" ry="2.5"/>
        <text fill="#000000" font-family="sans-serif" font-size="12" lengthAdjust="spacing" textLength="167.4199"
              x="500.6855" y="853.7305">.zeeplist per JsonConvert lesen
        </text>
        <rect fill="#F1F1F1" height="50.1875" rx="12.5" ry="12.5" style="stroke:#181818;stroke-width:0.5;"
              width="208.0625" x="497.0225" y="886.8164"/>
        <text fill="#000000" font-family="sans-serif" font-size="12" lengthAdjust="spacing" textLength="188.0625"
              x="507.0225" y="909.2734">Messenger.Notify().LogSuccess(...)
        </text>
        <text fill="#000000" font-family="sans-serif" font-size="12" font-weight="bold" lengthAdjust="spacing"
              textLength="45.9961" x="507.0225" y="924.3672">Unity-UI
        </text>
        <path d="M749.5859,947.0039 L749.5859,1013.4102 L729.5859,1017.4102 L749.5859,1021.4102 L749.5859,1087.8164 A0,0 0 0 0 749.5859,1087.8164 L979.3984,1087.8164 A0,0 0 0 0 979.3984,1087.8164 L979.3984,957.0039 L969.3984,947.0039 L749.5859,947.0039 A0,0 0 0 0 749.5859,947.0039"
              fill="#FEFFDD" style="stroke:#181818;stroke-width:0.5;"/>
        <path d="M969.3984,947.0039 L969.3984,957.0039 L979.3984,957.0039 L969.3984,947.0039" fill="#FEFFDD"
              style="stroke:#181818;stroke-width:0.5;"/>
        <text fill="#000000" font-family="sans-serif" font-size="13" font-weight="bold" lengthAdjust="spacing"
              textLength="85.23" x="755.5859" y="965.499">Kernproblem:
        </text>
        <text fill="#000000" font-family="sans-serif" font-size="13" lengthAdjust="spacing" textLength="138.0044"
              x="755.5859" y="981.8506">ConfigureAwait(false) in
        </text>
        <text fill="#000000" font-family="sans-serif" font-size="13" lengthAdjust="spacing" textLength="171.2534"
              x="755.5859" y="998.2021">DrawRandomLevelAsync und
        </text>
        <text fill="#000000" font-family="sans-serif" font-size="13" lengthAdjust="spacing" textLength="192.9434"
              x="755.5859" y="1014.5537">GetRandomLevelsAsync gibt den
        </text>
        <text fill="#000000" font-family="sans-serif" font-size="13" lengthAdjust="spacing" textLength="196.5425"
              x="755.5859" y="1030.9053">Unity-SynchronizationContext auf.
        </text>
        <text fill="#000000" font-family="sans-serif" font-size="13" lengthAdjust="spacing" textLength="196.5298"
              x="755.5859" y="1047.2568">Der komplette Local-Fallback l&#228;uft
        </text>
        <text fill="#000000" font-family="sans-serif" font-size="13" lengthAdjust="spacing" textLength="208.8125"
              x="755.5859" y="1063.6084">damit auf einem Worker-Thread und
        </text>
        <text fill="#000000" font-family="sans-serif" font-size="13" lengthAdjust="spacing" textLength="135.1035"
              x="755.5859" y="1079.96">ruft dort Unity-APIs auf.
        </text>
        <rect fill="#F1F1F1" height="50.1875" rx="12.5" ry="12.5" style="stroke:#181818;stroke-width:0.5;"
              width="257.0645" x="472.5215" y="992.3164"/>
        <text fill="#000000" font-family="sans-serif" font-size="12" lengthAdjust="spacing" textLength="208.1074"
              x="482.5215" y="1014.7734">available.OrderBy(_ =&gt; Random.value)
        </text>
        <text fill="#000000" font-family="sans-serif" font-size="12" font-weight="bold" lengthAdjust="spacing"
              textLength="237.0645" x="482.5215" y="1029.8672">UnityEngine.Random &#8212; nicht thread-safe
        </text>
        <polygon fill="#F1F1F1"
                 points="482.2661,1093.8164,494.2661,1105.8164,482.2661,1117.8164,470.2661,1105.8164,482.2661,1093.8164"
                 style="stroke:#181818;stroke-width:0.5;"/>
        <rect fill="#F1F1F1" height="35.0938" rx="12.5" ry="12.5" style="stroke:#181818;stroke-width:0.5;"
              width="192.7637" x="385.8843" y="1186.7344"/>
        <text fill="#000000" font-family="sans-serif" font-size="12" lengthAdjust="spacing" textLength="172.7637"
              x="395.8843" y="1209.1914">throw InvalidOperationException
        </text>
        <polygon fill="#F1F1F1"
                 points="439.7781,1137.8164,524.7542,1137.8164,536.7542,1149.8164,524.7542,1161.8164,439.7781,1161.8164,427.7781,1149.8164,439.7781,1137.8164"
                 style="stroke:#181818;stroke-width:0.5;"/>
        <text fill="#000000" font-family="sans-serif" font-size="11" lengthAdjust="spacing" textLength="8.5615"
              x="486.2661" y="1173.2354">ja
        </text>
        <text fill="#000000" font-family="sans-serif" font-size="11" lengthAdjust="spacing" textLength="84.9761"
              x="439.7781" y="1154.3174">immer noch leer?
        </text>
        <rect fill="#F1F1F1" height="50.1875" rx="12.5" ry="12.5" style="stroke:#181818;stroke-width:0.5;"
              width="163.4023" x="400.5649" y="1263.8281"/>
        <text fill="#000000" font-family="sans-serif" font-size="12" lengthAdjust="spacing" textLength="94.6934"
              x="410.5649" y="1286.2852">Track(newLevels)
        </text>
        <text fill="#000000" font-family="sans-serif" font-size="12" lengthAdjust="spacing" textLength="143.4023"
              x="410.5649" y="1301.3789">FetchedLevelUids += UIDs
        </text>
        <rect fill="#F1F1F1" height="35.0938" rx="12.5" ry="12.5" style="stroke:#181818;stroke-width:0.5;"
              width="203.4512" x="380.5405" y="1334.0156"/>
        <text fill="#000000" font-family="sans-serif" font-size="12" lengthAdjust="spacing" textLength="183.4512"
              x="390.5405" y="1356.4727">CachedLevels.AddRange(fetched)
        </text>
        <polygon fill="#F1F1F1"
                 points="415.6082,297.1367,548.9241,297.1367,560.9241,309.1367,548.9241,321.1367,415.6082,321.1367,403.6082,309.1367,415.6082,297.1367"
                 style="stroke:#181818;stroke-width:0.5;"/>
        <text fill="#000000" font-family="sans-serif" font-size="11" lengthAdjust="spacing" textLength="8.5615"
              x="486.2661" y="332.5557">ja
        </text>
        <text fill="#000000" font-family="sans-serif" font-size="11" lengthAdjust="spacing" textLength="133.3159"
              x="415.6082" y="313.6377">CachedLevels.Count == 0?
        </text>
        <polygon fill="#F1F1F1"
                 points="482.2661,1389.1094,494.2661,1401.1094,482.2661,1413.1094,470.2661,1401.1094,482.2661,1389.1094"
                 style="stroke:#181818;stroke-width:0.5;"/>
        <path d="M589.812,1423.1094 L589.812,1464.9883 L569.812,1468.9883 L589.812,1472.9883 L589.812,1514.8672 A0,0 0 0 0 589.812,1514.8672 L793.4404,1514.8672 A0,0 0 0 0 793.4404,1514.8672 L793.4404,1433.1094 L783.4404,1423.1094 L589.812,1423.1094 A0,0 0 0 0 589.812,1423.1094"
              fill="#FEFFDD" style="stroke:#181818;stroke-width:0.5;"/>
        <path d="M783.4404,1423.1094 L783.4404,1433.1094 L793.4404,1433.1094 L783.4404,1423.1094" fill="#FEFFDD"
              style="stroke:#181818;stroke-width:0.5;"/>
        <text fill="#000000" font-family="sans-serif" font-size="13" lengthAdjust="spacing" textLength="106.2026"
              x="595.812" y="1441.6045">Trotz des Namens
        </text>
        <text fill="#000000" font-family="sans-serif" font-size="13" lengthAdjust="spacing" textLength="182.6284"
              x="595.812" y="1457.9561">"DrawRandomLevelAsync" wird
        </text>
        <text fill="#000000" font-family="sans-serif" font-size="13" lengthAdjust="spacing" textLength="170.5107"
              x="595.812" y="1474.3076">immer Element 0 genommen.
        </text>
        <text fill="#000000" font-family="sans-serif" font-size="13" lengthAdjust="spacing" textLength="156.0508"
              x="595.812" y="1490.6592">Die Zuf&#228;lligkeit stammt aus
        </text>
        <text fill="#000000" font-family="sans-serif" font-size="13" lengthAdjust="spacing" textLength="158.9897"
              x="595.812" y="1507.0107">der Reihenfolge der Quelle.
        </text>
        <rect fill="#F1F1F1" height="65.2813" rx="12.5" ry="12.5" style="stroke:#181818;stroke-width:0.5;"
              width="175.0918" x="394.7202" y="1436.3477"/>
        <text fill="#000000" font-family="sans-serif" font-size="12" lengthAdjust="spacing" textLength="155.0918"
              x="404.7202" y="1458.8047">LevelItem = CachedLevels[0]
        </text>
        <text fill="#000000" font-family="sans-serif" font-size="12" lengthAdjust="spacing" textLength="150.0703"
              x="404.7202" y="1473.8984">CachedLevels.RemoveAt(0)
        </text>
        <text fill="#000000" font-family="sans-serif" font-size="12" lengthAdjust="spacing" textLength="126.7266"
              x="404.7202" y="1488.9922">PlayedLevels.Add(item)
        </text>
        <rect fill="#F1F1F1" height="35.0938" rx="12.5" ry="12.5" style="stroke:#181818;stroke-width:0.5;"
              width="132.7227" x="415.9048" y="1534.8672"/>
        <text fill="#000000" font-family="sans-serif" font-size="12" lengthAdjust="spacing" textLength="112.7227"
              x="425.9048" y="1557.3242">ToOnlineZeepLevel()
        </text>
        <line style="stroke:#000000;stroke-width:1.5;" x1="268.4355" x2="268.4355" y1="89.1211" y2="2151.0352"/>
        <rect fill="#F4EAFF" height="2061.9141" style="stroke:#F4EAFF;stroke-width:1;" width="465.1226" x="1012.3984"
              y="89.1211"/>
        <rect fill="#F1F1F1" height="35.0938" rx="12.5" ry="12.5" style="stroke:#181818;stroke-width:0.5;"
              width="116.0645" x="1069.7354" y="1785.4297"/>
        <text fill="#000000" font-family="sans-serif" font-size="12" lengthAdjust="spacing" textLength="96.0645"
              x="1079.7354" y="1807.8867">Queue.Dequeue()
        </text>
        <rect fill="#F1F1F1" height="35.0938" rx="12.5" ry="12.5" style="stroke:#181818;stroke-width:0.5;"
              width="162.7051" x="1046.415" y="1889.4414"/>
        <text fill="#000000" font-family="sans-serif" font-size="12" lengthAdjust="spacing" textLength="142.7051"
              x="1056.415" y="1911.8984">await Task.Delay(Restzeit)
        </text>
        <polygon fill="#F1F1F1"
                 points="1039.4185,1840.5234,1216.1167,1840.5234,1228.1167,1852.5234,1216.1167,1864.5234,1039.4185,1864.5234,1027.4185,1852.5234,1039.4185,1840.5234"
                 style="stroke:#181818;stroke-width:0.5;"/>
        <text fill="#000000" font-family="sans-serif" font-size="11" lengthAdjust="spacing" textLength="8.5615"
              x="1131.7676" y="1875.9424">ja
        </text>
        <text fill="#000000" font-family="sans-serif" font-size="11" lengthAdjust="spacing" textLength="176.6982"
              x="1039.4185" y="1857.0244">weniger als 5 s seit letztem Update?
        </text>
        <polygon fill="#F1F1F1"
                 points="1127.7676,1944.5352,1139.7676,1956.5352,1127.7676,1968.5352,1115.7676,1956.5352,1127.7676,1944.5352"
                 style="stroke:#181818;stroke-width:0.5;"/>
        <path d="M1257.1367,1978.5352 L1257.1367,2012.2383 L1237.1367,2016.2383 L1257.1367,2020.2383 L1257.1367,2053.9414 A0,0 0 0 0 1257.1367,2053.9414 L1472.521,2053.9414 A0,0 0 0 0 1472.521,2053.9414 L1472.521,1988.5352 L1462.521,1978.5352 L1257.1367,1978.5352 A0,0 0 0 0 1257.1367,1978.5352"
              fill="#FEFFDD" style="stroke:#181818;stroke-width:0.5;"/>
        <path d="M1462.521,1978.5352 L1462.521,1988.5352 L1472.521,1988.5352 L1462.521,1978.5352" fill="#FEFFDD"
              style="stroke:#181818;stroke-width:0.5;"/>
        <text fill="#000000" font-family="sans-serif" font-size="13" lengthAdjust="spacing" textLength="151.0234"
              x="1263.1367" y="1997.0303">Die Queue respektiert das
        </text>
        <text fill="#000000" font-family="sans-serif" font-size="13" lengthAdjust="spacing" textLength="182.7871"
              x="1263.1367" y="2013.3818">5-Sekunden-Serverlimit korrekt,
        </text>
        <text fill="#000000" font-family="sans-serif" font-size="13" lengthAdjust="spacing" textLength="181.397"
              x="1263.1367" y="2029.7334">f&#252;hrt das Update aber ebenfalls
        </text>
        <text fill="#000000" font-family="sans-serif" font-size="13" lengthAdjust="spacing" textLength="194.3843"
              x="1263.1367" y="2046.085">au&#223;erhalb des Main Threads aus.
        </text>
        <rect fill="#F1F1F1" height="50.1875" rx="12.5" ry="12.5" style="stroke:#181818;stroke-width:0.5;"
              width="218.7383" x="1018.3984" y="1991.1445"/>
        <text fill="#000000" font-family="sans-serif" font-size="12" lengthAdjust="spacing" textLength="198.7383"
              x="1028.3984" y="2013.6016">MultiplayerApi.UpdateServerPlaylist()
        </text>
        <text fill="#000000" font-family="sans-serif" font-size="12" font-weight="bold" lengthAdjust="spacing"
              textLength="164.0156" x="1028.3984" y="2028.6953">Unity-API auf Worker-Thread
        </text>
        <line style="stroke:#000000;stroke-width:1.5;" x1="1012.3984" x2="1012.3984" y1="89.1211" y2="2151.0352"/>
        <line style="stroke:#000000;stroke-width:1.5;" x1="1477.521" x2="1477.521" y1="89.1211" y2="2151.0352"/>
        <line style="stroke:#181818;stroke-width:1;" x1="142.7178" x2="142.7178" y1="136.7617" y2="156.7617"/>
        <polygon fill="#181818" points="138.7178,146.7617,142.7178,156.7617,146.7178,146.7617,142.7178,150.7617"
                 style="stroke:#181818;stroke-width:1;"/>
        <line style="stroke:#181818;stroke-width:1;" x1="142.7178" x2="142.7178" y1="206.9492" y2="226.9492"/>
        <polygon fill="#181818" points="138.7178,216.9492,142.7178,226.9492,146.7178,216.9492,142.7178,220.9492"
                 style="stroke:#181818;stroke-width:1;"/>
        <line style="stroke:#181818;stroke-width:1;" x1="142.7178" x2="142.7178" y1="1655.2422" y2="1675.2422"/>
        <polygon fill="#181818" points="138.7178,1665.2422,142.7178,1675.2422,146.7178,1665.2422,142.7178,1669.2422"
                 style="stroke:#181818;stroke-width:1;"/>
        <line style="stroke:#181818;stroke-width:1;" x1="142.7178" x2="142.7178" y1="1710.3359" y2="1730.3359"/>
        <polygon fill="#181818" points="138.7178,1720.3359,142.7178,1730.3359,146.7178,1720.3359,142.7178,1724.3359"
                 style="stroke:#181818;stroke-width:1;"/>
        <line style="stroke:#181818;stroke-width:1;" x1="142.7178" x2="142.7178" y1="2109.0352" y2="2129.0352"/>
        <polygon fill="#181818" points="138.7178,2119.0352,142.7178,2129.0352,146.7178,2119.0352,142.7178,2123.0352"
                 style="stroke:#181818;stroke-width:1;"/>
        <line style="stroke:#181818;stroke-width:1;" x1="482.2661" x2="482.2661" y1="381.1484" y2="401.1484"/>
        <polygon fill="#181818" points="478.2661,391.1484,482.2661,401.1484,486.2661,391.1484,482.2661,395.1484"
                 style="stroke:#181818;stroke-width:1;"/>
        <line style="stroke:#181818;stroke-width:1;" x1="482.2661" x2="482.2661" y1="451.3359" y2="471.3359"/>
        <polygon fill="#181818" points="478.2661,461.3359,482.2661,471.3359,486.2661,461.3359,482.2661,465.3359"
                 style="stroke:#181818;stroke-width:1;"/>
        <line style="stroke:#181818;stroke-width:1;" x1="601.0537" x2="601.0537" y1="640.8047" y2="675.8047"/>
        <polygon fill="#181818" points="597.0537,665.8047,601.0537,675.8047,605.0537,665.8047,601.0537,669.8047"
                 style="stroke:#181818;stroke-width:1;"/>
        <line style="stroke:#181818;stroke-width:1;" x1="601.0537" x2="601.0537" y1="725.9922" y2="745.9922"/>
        <polygon fill="#181818" points="597.0537,735.9922,601.0537,745.9922,605.0537,735.9922,601.0537,739.9922"
                 style="stroke:#181818;stroke-width:1;"/>
        <line style="stroke:#181818;stroke-width:1;" x1="601.0537" x2="601.0537" y1="796.1797" y2="816.1797"/>
        <polygon fill="#181818" points="597.0537,806.1797,601.0537,816.1797,605.0537,806.1797,601.0537,810.1797"
                 style="stroke:#181818;stroke-width:1;"/>
        <line style="stroke:#181818;stroke-width:1;" x1="601.0537" x2="601.0537" y1="866.3672" y2="886.8164"/>
        <polygon fill="#181818" points="597.0537,876.8164,601.0537,886.8164,605.0537,876.8164,601.0537,880.8164"
                 style="stroke:#181818;stroke-width:1;"/>
        <line style="stroke:#181818;stroke-width:1;" x1="601.0537" x2="601.0537" y1="937.0039" y2="992.3164"/>
        <polygon fill="#181818" points="597.0537,982.3164,601.0537,992.3164,605.0537,982.3164,601.0537,986.3164"
                 style="stroke:#181818;stroke-width:1;"/>
        <line style="stroke:#181818;stroke-width:1;" x1="413.0935" x2="363.4785" y1="583.7109" y2="583.7109"/>
        <line style="stroke:#181818;stroke-width:1;" x1="363.4785" x2="363.4785" y1="583.7109" y2="605.7109"/>
        <polygon fill="#181818" points="359.4785,595.7109,363.4785,605.7109,367.4785,595.7109,363.4785,599.7109"
                 style="stroke:#181818;stroke-width:1;"/>
        <line style="stroke:#181818;stroke-width:1;" x1="551.4387" x2="601.0537" y1="583.7109" y2="583.7109"/>
        <line style="stroke:#181818;stroke-width:1;" x1="601.0537" x2="601.0537" y1="583.7109" y2="605.7109"/>
        <polygon fill="#181818" points="597.0537,595.7109,601.0537,605.7109,605.0537,595.7109,601.0537,599.7109"
                 style="stroke:#181818;stroke-width:1;"/>
        <line style="stroke:#181818;stroke-width:1;" x1="363.4785" x2="363.4785" y1="655.8984" y2="1105.8164"/>
        <line style="stroke:#181818;stroke-width:1;" x1="363.4785" x2="470.2661" y1="1105.8164" y2="1105.8164"/>
        <polygon fill="#181818" points="460.2661,1101.8164,470.2661,1105.8164,460.2661,1109.8164,464.2661,1105.8164"
                 style="stroke:#181818;stroke-width:1;"/>
        <line style="stroke:#181818;stroke-width:1;" x1="601.0537" x2="601.0537" y1="1042.5039" y2="1105.8164"/>
        <line style="stroke:#181818;stroke-width:1;" x1="601.0537" x2="494.2661" y1="1105.8164" y2="1105.8164"/>
        <polygon fill="#181818" points="504.2661,1101.8164,494.2661,1105.8164,504.2661,1109.8164,500.2661,1105.8164"
                 style="stroke:#181818;stroke-width:1;"/>
        <line style="stroke:#181818;stroke-width:1;" x1="482.2661" x2="482.2661" y1="551.7109" y2="571.7109"/>
        <polygon fill="#181818" points="478.2661,561.7109,482.2661,571.7109,486.2661,561.7109,482.2661,565.7109"
                 style="stroke:#181818;stroke-width:1;"/>
        <line style="stroke:#181818;stroke-width:1;" x1="482.2661" x2="482.2661" y1="1161.8164" y2="1186.7344"/>
        <polygon fill="#181818" points="478.2661,1176.7344,482.2661,1186.7344,486.2661,1176.7344,482.2661,1180.7344"
                 style="stroke:#181818;stroke-width:1;"/>
        <line style="stroke:#181818;stroke-width:1;" x1="536.7542" x2="588.6479" y1="1149.8164" y2="1149.8164"/>
        <polygon fill="#181818" points="584.6479,1191.2813,588.6479,1201.2813,592.6479,1191.2813,588.6479,1195.2813"
                 style="stroke:#181818;stroke-width:1;"/>
        <line style="stroke:#181818;stroke-width:1;" x1="588.6479" x2="588.6479" y1="1149.8164" y2="1243.8281"/>
        <line style="stroke:#181818;stroke-width:1;" x1="588.6479" x2="482.2661" y1="1243.8281" y2="1243.8281"/>
        <line style="stroke:#181818;stroke-width:1;" x1="482.2661" x2="482.2661" y1="1243.8281" y2="1263.8281"/>
        <polygon fill="#181818" points="478.2661,1253.8281,482.2661,1263.8281,486.2661,1253.8281,482.2661,1257.8281"
                 style="stroke:#181818;stroke-width:1;"/>
        <line style="stroke:#181818;stroke-width:1;" x1="482.2661" x2="482.2661" y1="1117.8164" y2="1137.8164"/>
        <polygon fill="#181818" points="478.2661,1127.8164,482.2661,1137.8164,486.2661,1127.8164,482.2661,1131.8164"
                 style="stroke:#181818;stroke-width:1;"/>
        <line style="stroke:#181818;stroke-width:1;" x1="482.2661" x2="482.2661" y1="1314.0156" y2="1334.0156"/>
        <polygon fill="#181818" points="478.2661,1324.0156,482.2661,1334.0156,486.2661,1324.0156,482.2661,1328.0156"
                 style="stroke:#181818;stroke-width:1;"/>
        <line style="stroke:#181818;stroke-width:1;" x1="482.2661" x2="482.2661" y1="321.1367" y2="346.0547"/>
        <polygon fill="#181818" points="478.2661,336.0547,482.2661,346.0547,486.2661,336.0547,482.2661,340.0547"
                 style="stroke:#181818;stroke-width:1;"/>
        <line style="stroke:#181818;stroke-width:1;" x1="560.9241" x2="993.3984" y1="309.1367" y2="309.1367"/>
        <polygon fill="#181818" points="989.3984,856.8164,993.3984,866.8164,997.3984,856.8164,993.3984,860.8164"
                 style="stroke:#181818;stroke-width:1;"/>
        <line style="stroke:#181818;stroke-width:1;" x1="993.3984" x2="993.3984" y1="309.1367" y2="1401.1094"/>
        <line style="stroke:#181818;stroke-width:1;" x1="993.3984" x2="494.2661" y1="1401.1094" y2="1401.1094"/>
        <polygon fill="#181818" points="504.2661,1397.1094,494.2661,1401.1094,504.2661,1405.1094,500.2661,1401.1094"
                 style="stroke:#181818;stroke-width:1;"/>
        <line style="stroke:#181818;stroke-width:1;" x1="482.2661" x2="482.2661" y1="1369.1094" y2="1389.1094"/>
        <polygon fill="#181818" points="478.2661,1379.1094,482.2661,1389.1094,486.2661,1379.1094,482.2661,1383.1094"
                 style="stroke:#181818;stroke-width:1;"/>
        <line style="stroke:#181818;stroke-width:1;" x1="482.2661" x2="482.2661" y1="1413.1094" y2="1436.3477"/>
        <polygon fill="#181818" points="478.2661,1426.3477,482.2661,1436.3477,486.2661,1426.3477,482.2661,1430.3477"
                 style="stroke:#181818;stroke-width:1;"/>
        <line style="stroke:#181818;stroke-width:1;" x1="482.2661" x2="482.2661" y1="1501.6289" y2="1534.8672"/>
        <polygon fill="#181818" points="478.2661,1524.8672,482.2661,1534.8672,486.2661,1524.8672,482.2661,1528.8672"
                 style="stroke:#181818;stroke-width:1;"/>
        <line style="stroke:#181818;stroke-width:1;" x1="1127.7676" x2="1127.7676" y1="1864.5234" y2="1889.4414"/>
        <polygon fill="#181818" points="1123.7676,1879.4414,1127.7676,1889.4414,1131.7676,1879.4414,1127.7676,1883.4414"
                 style="stroke:#181818;stroke-width:1;"/>
        <line style="stroke:#181818;stroke-width:1;" x1="1228.1167" x2="1240.1167" y1="1852.5234" y2="1852.5234"/>
        <polygon fill="#181818" points="1236.1167,1896.9883,1240.1167,1906.9883,1244.1167,1896.9883,1240.1167,1900.9883"
                 style="stroke:#181818;stroke-width:1;"/>
        <line style="stroke:#181818;stroke-width:1;" x1="1240.1167" x2="1240.1167" y1="1852.5234" y2="1956.5352"/>
        <line style="stroke:#181818;stroke-width:1;" x1="1240.1167" x2="1139.7676" y1="1956.5352" y2="1956.5352"/>
        <polygon fill="#181818" points="1149.7676,1952.5352,1139.7676,1956.5352,1149.7676,1960.5352,1145.7676,1956.5352"
                 style="stroke:#181818;stroke-width:1;"/>
        <line style="stroke:#181818;stroke-width:1;" x1="1127.7676" x2="1127.7676" y1="1924.5352" y2="1944.5352"/>
        <polygon fill="#181818" points="1123.7676,1934.5352,1127.7676,1944.5352,1131.7676,1934.5352,1127.7676,1938.5352"
                 style="stroke:#181818;stroke-width:1;"/>
        <line style="stroke:#181818;stroke-width:1;" x1="1127.7676" x2="1127.7676" y1="1820.5234" y2="1840.5234"/>
        <polygon fill="#181818" points="1123.7676,1830.5234,1127.7676,1840.5234,1131.7676,1830.5234,1127.7676,1834.5234"
                 style="stroke:#181818;stroke-width:1;"/>
        <line style="stroke:#181818;stroke-width:1;" x1="1127.7676" x2="1127.7676" y1="1968.5352" y2="1991.1445"/>
        <polygon fill="#181818" points="1123.7676,1981.1445,1127.7676,1991.1445,1131.7676,1981.1445,1127.7676,1985.1445"
                 style="stroke:#181818;stroke-width:1;"/>
        <line style="stroke:#181818;stroke-width:1;" x1="142.7178" x2="142.7178" y1="277.1367" y2="282.1367"/>
        <line style="stroke:#181818;stroke-width:1;" x1="142.7178" x2="482.2661" y1="282.1367" y2="282.1367"/>
        <line style="stroke:#181818;stroke-width:1;" x1="482.2661" x2="482.2661" y1="282.1367" y2="297.1367"/>
        <polygon fill="#181818" points="478.2661,287.1367,482.2661,297.1367,486.2661,287.1367,482.2661,291.1367"
                 style="stroke:#181818;stroke-width:1;"/>
        <line style="stroke:#181818;stroke-width:1;" x1="482.2661" x2="482.2661" y1="1569.9609" y2="1574.9609"/>
        <line style="stroke:#181818;stroke-width:1;" x1="482.2661" x2="142.7178" y1="1574.9609" y2="1574.9609"/>
        <line style="stroke:#181818;stroke-width:1;" x1="142.7178" x2="142.7178" y1="1574.9609" y2="1589.9609"/>
        <polygon fill="#181818" points="138.7178,1579.9609,142.7178,1589.9609,146.7178,1579.9609,142.7178,1583.9609"
                 style="stroke:#181818;stroke-width:1;"/>
        <line style="stroke:#181818;stroke-width:1;" x1="142.7178" x2="142.7178" y1="1765.4297" y2="1770.4297"/>
        <line style="stroke:#181818;stroke-width:1;" x1="142.7178" x2="1127.7676" y1="1770.4297" y2="1770.4297"/>
        <line style="stroke:#181818;stroke-width:1;" x1="1127.7676" x2="1127.7676" y1="1770.4297" y2="1785.4297"/>
        <polygon fill="#181818" points="1123.7676,1775.4297,1127.7676,1785.4297,1131.7676,1775.4297,1127.7676,1779.4297"
                 style="stroke:#181818;stroke-width:1;"/>
        <line style="stroke:#181818;stroke-width:1;" x1="1127.7676" x2="1127.7676" y1="2041.332" y2="2058.9414"/>
        <line style="stroke:#181818;stroke-width:1;" x1="1127.7676" x2="142.7178" y1="2058.9414" y2="2058.9414"/>
        <line style="stroke:#181818;stroke-width:1;" x1="142.7178" x2="142.7178" y1="2058.9414" y2="2073.9414"/>
        <polygon fill="#181818" points="138.7178,2063.9414,142.7178,2073.9414,146.7178,2063.9414,142.7178,2067.9414"
                 style="stroke:#181818;stroke-width:1;"/>
        <text fill="#000000" font-family="sans-serif" font-size="18" lengthAdjust="spacing" textLength="147.0586"
              x="68.1885" y="107.8066">Unity Main Thread
        </text>
        <text fill="#000000" font-family="sans-serif" font-size="18" lengthAdjust="spacing" textLength="288.1143"
              x="496.3599" y="107.8066">Thread-Pool (ConfigureAwait(false))
        </text>
        <text fill="#000000" font-family="sans-serif" font-size="18" lengthAdjust="spacing" textLength="271.0898"
              x="1109.4148" y="107.8066">PlaylistService-Queue (Task.Run)
        </text>
        <?plantuml-src VLNDRjj64BxhAIOkKb1jHAj50XHgx8AnhC2D_sB9A92gA5RaKDngkSliBYLByA4FqNilVepSz2PzaiukAPcItPuaxknyi_FDDpEMMu4GpIoVSxj-iF3Fdt_1ESvHJD346KlJKaxXQnXb6bdI-Q2anJiBmTbmr6wrp8pBWccMWybOeXQSxgPC66orxhywZGQl1uFxMydj4YuObpN8VSjOfcsh5zbiQ9d5yFGEuz9Yq1xBO1N2kn3yUMNNrg4UmWqQ9URq_vrMCvJj7rizjc3SmWsJYShzcuUevpp6iGG8-vej6gR8B6KSa1UzR30OT0VT-pgdQwK412TAfdnQQemSQE2pQBVlMpmb6uipJ3oC2KzKAIqS7K7tfpRO32K4Vx1s2w3t7cqZeDb69DD8BmTeusoWLVvUioBxk7dGM8RFXlPkrTNpEgrmDu07SAcol7eIVDVjGf0ndSGguQXjsrbpTXULDbDwn7DqbtxeWdbwBUN2ekx1YmG5ManUrR03Bhd9qC0BofZO0t2CHD8kbBQ0qcRh1s4hoPWzHYW3ITI1Jxqcy9OdfWucgTmtfUoilqnGJpNo56M2qCUaB2e2218Xa4ZQEOJJknWBovMieAcA9_t-zxqjh-SgPk9QiANWnfgA-CThtkfVuAlPLCgfD4J-6UcKCy5NcEpxRa2ZWhiQD6ACvTl9iLTu9xe-UtiuETxr730X9YoUzU1bT7tTZqRHo_7u4s8n8__nU8iqbj-4Apfs7r2WXf-DagIBEPK711gKkxWNQEXiYZgyL9Qdow0Tdglfi8nZCWHX63PVTllCmzYSSS4c0iChdQ1-jmn-XwFZkfV2EHCbDY1EvPHB32kh7n6InvcbOliECYp5nn1IMGJDfvdrdm24ye6gNMX5yVAUkrbRdbK-S5cRdsjXA6LIcv_hDvZoYOK4Dn0L0qEoP5f9lc9EG2Vr56Db6cv24USpbHUaVNgz5qjdKpmGwuSotMIJi9nxLo1POWw_A3r3tQc6IUDrcbmWSKsorOTvZ4XAzqIr_5-URXgBvpczH2hg6e6edpJKfdx4l5h0cQHAyUIA5ECJsxP8LOa4BMcz6O864IL47RMeEACQFsdERu_Wzgnl_03QcNnHaX3VKmpIoeMwf0Rk-HjdbkWuWgRFhztVnd87v0PpDQVH7dGfjjD_4pxW146mEn8QQMLNb8k1IvQZD7Hqy9mo3c31jME_ul2Kj4RZ2RemHQdeI3hc-npXKvdIp19yEaEg92sZF7S5TS3K2hHeE56UAZ55__snH45zqjgMh3TILr9GyLqZ-_ZrNldlZRST8PjHxXVR9Iusvt0ubaI0Hnkfar9hUdlJU4F3WSLO4IttBj0kh4_ErMIo3BUE2TSuiv2NbWQz6o8zogRqqm_rvjPjaJ2tVQlT-9go6DpllRVZtI0OCJCBQMRJOgoGmZv-Th_Es-btWPBJM0BgP7X3UyOuYgcfLauRLQ3zjLbjSO_SHmeRqAQtA_BRwgjtKGhB2oSMxMPmXRERnFuizXswqvlLXDgHbbD3bPb6Kn1JRXrIXpiflEaCSKRjZB9JHHBSDVvCQKVfAxgHhhzarVKwCs2qo00df1uQ7Gw4bUk_KMTCJBo06vfmiy0qHFN_yZd9cDy-GxhlPZ-ZBZmuJ0tGg3yWdenLHUjV?>
    </g>
</svg>